<svg xmlns="http://www.w3.org/2000/svg"  viewBox="0 0 50 50" width="50px" height="50px"><path d="M 25 2 C 24.285156 2 23.570313 2.179688 22.933594 2.539063 L 6.089844 12.003906 C 4.800781 12.726563 4 14.082031 4 15.535156 L 4 34.464844 C 4 35.917969 4.800781 37.273438 6.089844 37.996094 L 22.933594 47.460938 C 23.570313 47.820313 24.285156 48 25 48 C 25.714844 48 26.429688 47.820313 27.066406 47.460938 L 43.910156 38 C 45.199219 37.273438 46 35.917969 46 34.464844 L 46 15.535156 C 46 14.082031 45.199219 12.726563 43.910156 12.003906 L 27.066406 2.539063 C 26.429688 2.179688 25.714844 2 25 2 Z M 25 13 C 28.78125 13 32.277344 14.753906 34.542969 17.738281 L 30.160156 20.277344 C 28.84375 18.835938 26.972656 18 25 18 C 21.140625 18 18 21.140625 18 25 C 18 28.859375 21.140625 32 25 32 C 26.972656 32 28.84375 31.164063 30.160156 29.722656 L 34.542969 32.261719 C 32.277344 35.246094 28.78125 37 25 37 C 18.382813 37 13 31.617188 13 25 C 13 18.382813 18.382813 13 25 13 Z M 35 20 L 37 20 L 37 22 L 39 22 L 39 20 L 41 20 L 41 22 L 43 22 L 43 24 L 41 24 L 41 26 L 43 26 L 43 28 L 41 28 L 41 30 L 39 30 L 39 28 L 37 28 L 37 30 L 35 30 L 35 28 L 33 28 L 33 26 L 35 26 L 35 24 L 33 24 L 33 22 L 35 22 Z M 37 24 L 37 26 L 39 26 L 39 24 Z"/></svg>