<svg width="319" height="217" viewBox="0 0 319 217" fill="none" xmlns="http://www.w3.org/2000/svg">
<path id="Subtract" fill-rule="evenodd" clip-rule="evenodd" d="M168.057 180.753C112.01 193.491 89.1302 176.239 84.059 163.293C87.8417 140.407 105.727 111.654 143.68 97.9235C172.282 87.5763 212.436 85.7074 266.738 101.567C268.273 111.992 266.01 135.163 244.921 152.3C219.693 164.503 198.005 172.701 179.464 177.862C175.52 178.96 171.719 179.92 168.057 180.753ZM250.697 152.591C270.739 134.138 272.432 110.408 270.52 99.9197C271.402 92.1227 277.45 75.5244 294.793 68.4194C316.507 98.2333 321.25 117.904 317.4 130.509C313.546 143.122 300.708 149.684 284.683 152.254C273.693 154.017 261.56 153.83 250.697 152.591ZM251.948 22.9672C270.212 36.2541 284.472 52.9901 292.494 65.0468C275.328 72.4588 268.534 88.3121 266.852 97.4344C213.75 82.089 173.654 83.442 144.397 93.4318C141.163 79.2908 144.414 61.0021 151.774 43.9218C159.416 26.1882 171.291 10.2151 184.19 1.93143C209.33 -1.01203 232.746 8.99721 251.948 22.9672ZM148.101 42.3388C140.498 59.9825 136.923 79.4131 140.608 94.796C102.877 109.1 84.5005 138.023 80.2573 161.799C44.5349 168.515 21.7953 160.556 10.2004 145.922C-1.584 131.049 -2.45973 108.538 7.28156 85.3367C26.3518 39.9169 85.7788 -6.88032 177.945 1.44779C165.824 10.7796 155.151 25.9768 148.101 42.3388ZM182.023 181.297C200.416 176.065 221.732 167.94 246.322 156.066C257.667 157.658 270.867 158.194 283.05 156.539C282.968 165.327 279.746 177.223 270.263 186.682C260.044 196.875 242.264 204.526 212.441 202.03C206.949 199.975 198.94 196.385 192.447 192.197C189.142 190.066 186.329 187.842 184.434 185.658C183.007 184.012 182.244 182.558 182.023 181.297ZM190.278 195.559C196.967 199.873 205.085 203.527 210.74 205.664L214.91 211.35C210.743 215.564 206.832 216.502 205.012 216.556C191.671 199.747 179.854 188.873 173.187 183.647C174.818 183.244 176.474 182.818 178.155 182.367C178.625 184.497 179.866 186.495 181.413 188.278C183.661 190.871 186.828 193.334 190.278 195.559Z" fill="black"/>
</svg>
