<svg width="432" height="246" viewBox="0 0 432 246" fill="none" xmlns="http://www.w3.org/2000/svg">
<g id="GPU Light">
<path id="PCB" fill-rule="evenodd" clip-rule="evenodd" d="M337 167H32V235H111V226V225C111 220.582 114.582 217 119 217C123.418 217 127 220.582 127 225V226V235H337V167Z" fill="#292929"/>
<g id="PCIe">
<path id="Rectangle 3" d="M127 231C127 228.239 129.239 226 132 226H302C304.761 226 307 228.239 307 231V235H127V231Z" fill="#8E8E8E"/>
<path id="Rectangle 4" d="M72 231C72 228.239 74.2386 226 77 226H106C108.761 226 111 228.239 111 231V235H72V231Z" fill="#8E8E8E"/>
</g>
<path id="Encasing" fill-rule="evenodd" clip-rule="evenodd" d="M32 28C32 12.536 44.536 0 60 0H404C419.464 0 432 12.536 432 28V172C432 187.464 419.464 200 404 200H60C44.536 200 32 187.464 32 172V28ZM392 97C392 135.66 360.66 167 322 167C283.34 167 252 135.66 252 97C252 58.3401 283.34 27 322 27C360.66 27 392 58.3401 392 97ZM142 167C180.66 167 212 135.66 212 97C212 58.3401 180.66 27 142 27C103.34 27 72 58.3401 72 97C72 135.66 103.34 167 142 167Z" fill="#8E8E8E"/>
<g id="Screws">
<circle id="Ellipse 5" cx="67" cy="27" r="5" fill="#292929"/>
<circle id="Ellipse 6" cx="232" cy="27" r="5" fill="#292929"/>
<circle id="Ellipse 7" cx="392" cy="27" r="5" fill="#292929"/>
<circle id="Ellipse 8" cx="67" cy="172" r="5" fill="#292929"/>
<circle id="Ellipse 9" cx="232" cy="172" r="5" fill="#292929"/>
<circle id="Ellipse 10" cx="392" cy="172" r="5" fill="#292929"/>
</g>
<g id="Brackets">
<rect id="Rectangle 5" x="25" y="177" width="7" height="58" fill="#292929"/>
<rect id="Rectangle 6" x="25" y="71" width="7" height="22" fill="#292929"/>
<rect id="Rectangle 7" x="25" y="101" width="7" height="22" fill="#292929"/>
<rect id="Rectangle 8" y="246" width="184" height="25" rx="12.5" transform="rotate(-90 0 246)" fill="#8E8E8E"/>
</g>
<g id="Fan1">
<path d="M151 106.721V85.2213C165.667 77.388 196.6 64.8213 203 77.2213C209.4 89.6213 205.667 111.721 203 121.221C191 96.4213 163.333 101.221 151 106.721Z" fill="#8E8E8E"/>
<path d="M132.534 86.5V108C117.867 115.833 86.9338 128.4 80.5338 116C74.1338 103.6 77.8671 81.5 80.5338 72C92.5338 96.8 120.2 92 132.534 86.5Z" fill="#8E8E8E"/>
<path d="M137.904 109.747L156.292 98.6055C170.592 107.09 197.369 127.034 190.081 138.934C182.792 150.833 161.956 159.092 152.449 161.734C167.441 138.62 148.999 117.445 137.904 109.747Z" fill="#8E8E8E"/>
<path d="M145.63 83.4747L127.241 94.6159C112.942 86.1312 86.1644 66.1871 93.4532 54.2878C100.742 42.3885 121.578 34.1293 131.085 31.4872C116.093 54.6016 134.535 75.7765 145.63 83.4747Z" fill="#8E8E8E"/>
<path d="M128.336 99.2734L146.729 110.407C145.834 127.011 140.566 159.981 126.644 159.035C112.722 158.088 95.7491 143.45 89.0031 136.249C116.433 138.826 126.654 112.672 128.336 99.2734Z" fill="#8E8E8E"/>
<path d="M155.198 93.948L136.805 82.814C137.699 66.2106 142.968 33.2404 156.89 34.1869C170.812 35.1334 187.785 49.7718 194.531 56.9727C167.101 54.3954 156.88 80.549 155.198 93.948Z" fill="#8E8E8E"/>
</g>
<circle id="Fan1Fulcurm" cx="142" cy="97" r="13.5" fill="#8E8E8E" stroke="#292929" stroke-width="3"/>
<g id="Fan2">
<path d="M331 107.234V85.7341C345.667 77.9008 376.6 65.3341 383 77.7341C389.4 90.1341 385.667 112.234 383 121.734C371 96.9341 343.333 101.734 331 107.234Z" fill="#8E8E8E"/>
<path d="M312.534 87.0128V108.513C297.867 116.346 266.934 128.913 260.534 116.513C254.134 104.113 257.867 82.0128 260.534 72.5128C272.534 97.3128 300.2 92.5128 312.534 87.0128Z" fill="#8E8E8E"/>
<path d="M317.904 110.26L336.292 99.1183C350.592 107.603 377.369 127.547 370.081 139.446C362.792 151.346 341.956 159.605 332.449 162.247C347.441 139.133 328.999 117.958 317.904 110.26Z" fill="#8E8E8E"/>
<path d="M325.63 83.9875L307.241 95.1287C292.942 86.644 266.164 66.6999 273.453 54.8006C280.742 42.9013 301.578 34.6422 311.085 32C296.093 55.1144 314.535 76.2893 325.63 83.9875Z" fill="#8E8E8E"/>
<path d="M308.336 99.7862L326.729 110.92C325.834 127.524 320.566 160.494 306.644 159.547C292.722 158.601 275.749 143.962 269.003 136.761C296.433 139.339 306.654 113.185 308.336 99.7862Z" fill="#8E8E8E"/>
<path d="M335.198 94.4608L316.805 83.3268C317.699 66.7234 322.968 33.7532 336.89 34.6997C350.812 35.6462 367.785 50.2846 374.531 57.4855C347.101 54.9082 336.88 81.0618 335.198 94.4608Z" fill="#8E8E8E"/>
</g>
<circle id="Fan2Fulcurm" cx="322" cy="97.5128" r="13.5" fill="#8E8E8E" stroke="#292929" stroke-width="3"/>
</g>
</svg>
