<svg width="439" height="376" viewBox="0 0 439 376" fill="none" xmlns="http://www.w3.org/2000/svg">
<g id="Human Light">
<g id="Body">
<path id="Ellipse 6" d="M4.50003 285.511C4.50003 261.685 19.7858 238.836 46.9948 221.989C74.2037 205.141 111.107 195.677 149.586 195.677C188.065 195.677 224.968 205.141 252.177 221.989C279.386 238.836 294.672 261.685 294.672 285.511L149.586 285.511L4.50003 285.511Z" fill="#D9D9D9"/>
<path id="Rectangle 6" d="M4.5 285.511H262.074L278.772 366.6H0L4.5 285.511Z" fill="#D9D9D9"/>
<path id="Vector 13" d="M80.8193 270.406C75.1218 273.586 54.823 297.833 68.4969 366.203" stroke="black" stroke-width="3"/>
<path id="Vector 14" d="M216.365 274.778C219.758 287.896 254.525 231.849 272.81 337.185C260.222 336.39 216.365 298.231 216.365 274.778Z" fill="black"/>
</g>
<g id="Hand">
<path id="Vector 12" d="M320.599 100.06L352.311 137.13L353.656 151.374L396.793 148.323L395.465 138.941C408.091 130.467 411.001 118.547 410.879 113.647L408.936 64.3134C405.519 54.3644 396.457 54.7213 393.834 64.9082L393.278 50.813C390.908 41.8311 378.826 42.3069 377.17 51.4474L376.951 45.9101C372.528 36.0007 364.473 36.318 361.849 46.5049L362.266 57.0763C357.842 47.1669 348.781 47.5238 346.157 57.7108L348.021 105.031L339.61 96.2867C327.171 87.7014 317.262 92.1249 320.599 100.06Z" fill="#A7A7A7"/>
<path id="Vector 15" d="M339.61 96.2867L347.892 104.836C352.513 109.278 350.862 117.47 363.44 112.49M346.157 57.7108C348.781 47.5238 357.842 47.1669 362.266 57.0763L361.849 46.5049M363.693 93.3213L361.849 46.5049M361.849 46.5049C364.473 36.318 372.528 36.0007 376.951 45.9101L377.17 51.4474M378.795 92.7265L377.17 51.4474M377.17 51.4474C378.826 42.3069 390.908 41.8311 393.278 50.813L393.833 64.9082M394.983 94.1057L393.833 64.9082M393.833 64.9082C396.457 54.7213 405.519 54.3644 408.935 64.3134" stroke="black"/>
</g>
<g id="Neck">
<path id="Rectangle 5" d="M111.324 181.367H185.531L200.068 217.142H103.079L111.324 181.367Z" fill="#A7A7A7"/>
<path id="Vector 8" d="M200.068 217.142C171.136 213.46 157.803 199.038 154.753 192.288L186.561 182.162L200.068 217.142Z" fill="black"/>
<path id="Ellipse 7" d="M200.068 217.142C200.068 226.419 194.959 235.316 185.864 241.876C176.77 248.436 164.435 252.121 151.574 252.121C138.712 252.121 126.377 248.436 117.283 241.876C108.188 235.316 103.079 226.419 103.079 217.142L151.574 217.142H200.068Z" fill="#A7A7A7"/>
<path id="Vector 11" d="M103.079 217.539C106.472 230.656 118.263 248.862 144.021 251.724C131.434 250.929 103.079 240.991 103.079 217.539Z" fill="black"/>
</g>
<g id="Arm">
<ellipse id="Ellipse 14" cx="38.1596" cy="37.7621" rx="38.1596" ry="37.7621" transform="matrix(-0.69884 0.715278 0.715278 0.69884 253.403 215.457)" fill="#D9D9D9"/>
<path id="Vector 16" d="M249.755 306.976L256.115 231.451C299.045 235.903 314.813 218.546 323.292 211.179C347.539 190.112 348.811 156.245 347.539 141.617L401.598 139.232C405.971 164.275 412.653 187.329 401.598 227.079C382.916 294.256 306.994 306.976 249.755 306.976Z" fill="#D9D9D9"/>
</g>
<g id="Head">
<rect id="Rectangle 2" x="77.7958" y="24.6055" width="149.458" height="83.4742" transform="rotate(3.2324 77.7958 24.6055)" fill="#A7A7A7"/>
<path id="Rectangle 1" d="M77.7958 24.6055C78.5633 11.0163 90.2017 0.622155 103.791 1.38962L203.801 7.03776C217.39 7.80523 227.784 19.4437 227.017 33.0329L77.7958 24.6055Z" fill="black"/>
<path id="Ellipse 1" d="M222.332 115.977C221.09 137.976 212.038 158.629 197.167 173.394C182.296 188.159 162.825 195.826 143.037 194.708C123.25 193.591 104.766 183.78 91.652 167.435C78.5383 151.089 71.8691 129.548 73.1114 107.55L147.722 111.764L222.332 115.977Z" fill="#A7A7A7"/>
<path id="Vector 1" d="M75.8237 59.5246L77.7958 24.6055L158.756 29.1778C156.715 65.3216 104.754 61.1585 75.8237 59.5246Z" fill="black"/>
<path id="Vector 2" d="M224.731 73.5073L227.017 33.0329L151.612 28.7744C149.246 70.6683 197.786 71.9856 224.731 73.5073Z" fill="black"/>
<rect id="Rectangle 3" width="33.7136" height="9.77822" rx="4.88911" transform="matrix(0.936813 -0.34983 0.320228 0.947341 97.5403 83.6792)" fill="black"/>
<ellipse id="Ellipse 2" cx="121.58" cy="102.325" rx="7.55242" ry="8.34742" transform="rotate(3.2324 121.58 102.325)" fill="black"/>
<rect id="Rectangle 4" width="33.7136" height="9.77822" rx="4.88911" transform="matrix(-0.891468 -0.453084 -0.424855 0.905261 200.951 89.5195)" fill="black"/>
<ellipse id="Ellipse 3" cx="7.94992" cy="8.34742" rx="7.94992" ry="8.34742" transform="matrix(-0.998409 -0.0563861 -0.0563861 0.998409 183.565 97.4647)" fill="black"/>
<path id="Vector 3 (Stroke)" fill-rule="evenodd" clip-rule="evenodd" d="M142.389 112.297C144.09 104.134 145.826 95.0097 146.335 88.668C146.392 87.9705 146.989 87.4364 147.688 87.4759C148.386 87.5154 148.922 88.1136 148.866 88.8112C148.344 95.389 146.56 104.724 144.862 112.874C144.249 115.814 143.643 118.621 143.108 121.103C142.85 122.297 142.608 123.416 142.39 124.438C142.054 126.016 141.773 127.36 141.571 128.406C141.363 129.489 141.259 130.155 141.243 130.436C141.196 131.264 141.799 132.342 143.866 133.35C145.557 134.176 147.905 134.772 150.613 135.04C151.364 135.115 151.941 135.757 151.898 136.51C151.856 137.263 151.21 137.842 150.459 137.77C147.523 137.487 144.845 136.837 142.803 135.84C140.547 134.738 138.564 132.934 138.713 130.293C138.742 129.778 138.89 128.912 139.09 127.872C139.297 126.796 139.583 125.427 139.92 123.847C140.141 122.813 140.384 121.688 140.643 120.49C141.177 118.014 141.779 115.228 142.389 112.297Z" fill="black"/>
<path id="Vector 4 (Stroke)" fill-rule="evenodd" clip-rule="evenodd" d="M156.653 160.819C151.144 162.762 145.409 162.031 141.38 160.633C140.673 160.388 140.335 159.592 140.605 158.896C140.88 158.188 141.679 157.853 142.402 158.096C146.013 159.312 151.064 159.903 155.825 158.224C160.863 156.447 165.784 152.059 168.341 142.601C168.53 141.901 169.235 141.47 169.939 141.648C170.641 141.826 171.076 142.544 170.889 143.243C168.13 153.531 162.63 158.711 156.653 160.819Z" fill="black"/>
<ellipse id="Ellipse 4" cx="74.4048" cy="91.6979" rx="6.75743" ry="16.2973" transform="rotate(3.2324 74.4048 91.6979)" fill="#A7A7A7"/>
<ellipse id="Ellipse 5" cx="223.229" cy="100.103" rx="7.15493" ry="16.2973" transform="rotate(3.2324 223.229 100.103)" fill="#A7A7A7"/>
<path id="Vector 5 (Stroke)" fill-rule="evenodd" clip-rule="evenodd" d="M73.4561 78.0327C73.7431 78.2055 73.8468 78.5721 73.701 78.8737C70.0058 86.5165 70.2583 92.8682 70.9147 95.5587C70.9941 95.8845 70.8366 96.228 70.5268 96.3563C70.1843 96.4981 69.7937 96.3218 69.7048 95.9618C68.9498 92.9031 68.7548 86.2043 72.5585 78.2977C72.7201 77.9618 73.1368 77.8404 73.4561 78.0327Z" fill="black"/>
<path id="Vector 6 (Stroke)" fill-rule="evenodd" clip-rule="evenodd" d="M225.517 86.5779C225.114 86.7285 224.925 87.1892 225.092 87.585C228.396 95.3807 227.432 101.492 226.351 104.162C226.19 104.56 226.345 105.033 226.734 105.215C227.09 105.382 227.515 105.246 227.672 104.886C228.953 101.941 230.017 95.3051 226.449 86.9726C226.295 86.6131 225.883 86.4408 225.517 86.5779Z" fill="black"/>
<path id="Vector 9 (Stroke)" fill-rule="evenodd" clip-rule="evenodd" d="M150.55 47.1478C150.888 46.3122 151.093 45.5771 151.198 44.9523C151.351 44.0381 151.936 43.1277 152.836 42.9069C153.789 42.6731 154.753 43.2866 154.717 44.2669C154.666 45.6535 154.292 47.1387 153.698 48.6066C152.821 50.7712 151.394 53.0882 149.455 55.3413C145.872 59.5068 140.467 63.5442 133.294 66.0569C132.304 66.4036 131.248 65.8027 130.993 64.7855C130.753 63.8327 131.308 62.8639 132.235 62.5397C138.871 60.2196 143.772 56.5206 146.945 52.8319C148.665 50.8326 149.856 48.8627 150.55 47.1478Z" fill="black"/>
<path id="Vector 7" d="M143.786 195.547C162.507 196.604 196.405 184.11 211.293 156.361" stroke="black" stroke-width="3"/>
</g>
</g>
</svg>
