<svg width="439" height="376" viewBox="0 0 439 376" fill="none" xmlns="http://www.w3.org/2000/svg">
<g id="Human Light">
<g id="Body">
<path id="Ellipse 6" d="M5.00003 285.511C5.00003 261.685 20.2858 238.836 47.4948 221.989C74.7037 205.141 111.607 195.677 150.086 195.677C188.565 195.677 225.468 205.141 252.677 221.989C279.886 238.836 295.172 261.685 295.172 285.511L150.086 285.511L5.00003 285.511Z" fill="#A7A7A7"/>
<path id="Rectangle 6" d="M5 285.511H262.574L279.272 366.6H0.5L5 285.511Z" fill="#A7A7A7"/>
<path id="Vector 13" d="M81.3193 270.406C75.6218 273.586 55.323 297.833 68.9969 366.203" stroke="black" stroke-width="3"/>
<path id="Vector 14" d="M216.865 274.778C220.258 287.896 255.025 231.849 273.31 337.185C260.722 336.39 216.865 298.231 216.865 274.778Z" fill="black"/>
</g>
<g id="Hand">
<path id="Vector 12" d="M321.099 100.061L352.811 137.13L354.156 151.374L397.293 148.323L395.965 138.941C408.591 130.467 411.501 118.547 411.379 113.647L409.436 64.3134C406.019 54.3644 396.957 54.7213 394.334 64.9082L393.778 50.813C391.408 41.8311 379.326 42.307 377.67 51.4475L377.451 45.9101C373.028 36.0007 364.973 36.318 362.349 46.5049L362.766 57.0763C358.342 47.1669 349.281 47.5238 346.657 57.7108L348.521 105.031L340.11 96.2868C327.671 87.7014 317.762 92.1249 321.099 100.061Z" fill="#D9D9D9"/>
<path id="Vector 15" d="M340.11 96.2867L348.392 104.836C353.013 109.278 351.362 117.47 363.94 112.49M346.657 57.7108C349.281 47.5238 358.342 47.1669 362.766 57.0763L362.349 46.5049M364.193 93.3213L362.349 46.5049M362.349 46.5049C364.973 36.318 373.028 36.0007 377.451 45.9101L377.67 51.4474M379.295 92.7265L377.67 51.4474M377.67 51.4474C379.326 42.3069 391.408 41.8311 393.778 50.813L394.333 64.9082M395.483 94.1057L394.333 64.9082M394.333 64.9082C396.957 54.7213 406.019 54.3644 409.435 64.3134" stroke="black"/>
</g>
<g id="Neck">
<path id="Rectangle 5" d="M111.824 181.367H186.031L200.568 217.142H103.579L111.824 181.367Z" fill="#D9D9D9"/>
<path id="Vector 8" d="M200.568 217.142C171.636 213.46 158.303 199.038 155.253 192.288L187.061 182.162L200.568 217.142Z" fill="black"/>
<path id="Ellipse 7" d="M200.568 217.142C200.568 226.419 195.459 235.316 186.364 241.876C177.27 248.436 164.935 252.121 152.074 252.121C139.212 252.121 126.877 248.436 117.783 241.876C108.688 235.316 103.579 226.419 103.579 217.142L152.074 217.142H200.568Z" fill="#D9D9D9"/>
<path id="Vector 11" d="M103.579 217.539C106.972 230.656 118.763 248.862 144.521 251.724C131.934 250.929 103.579 240.991 103.579 217.539Z" fill="black"/>
</g>
<g id="Arm">
<ellipse id="Ellipse 14" cx="38.1596" cy="37.7621" rx="38.1596" ry="37.7621" transform="matrix(-0.69884 0.715278 0.715278 0.69884 253.903 215.457)" fill="#A7A7A7"/>
<path id="Vector 16" d="M250.255 306.976L256.615 231.451C299.545 235.903 315.313 218.546 323.792 211.179C348.039 190.112 349.311 156.245 348.039 141.617L402.098 139.232C406.471 164.275 413.153 187.329 402.098 227.079C383.416 294.256 307.494 306.976 250.255 306.976Z" fill="#A7A7A7"/>
</g>
<g id="Head">
<rect id="Rectangle 2" x="78.2958" y="24.6055" width="149.458" height="83.4742" transform="rotate(3.2324 78.2958 24.6055)" fill="#D9D9D9"/>
<path id="Rectangle 1" d="M78.2958 24.6055C79.0633 11.0163 90.7017 0.622155 104.291 1.38962L204.301 7.03776C217.89 7.80523 228.284 19.4437 227.517 33.0329L78.2958 24.6055Z" fill="black"/>
<path id="Ellipse 1" d="M222.832 115.977C221.59 137.976 212.538 158.629 197.667 173.394C182.796 188.159 163.325 195.826 143.537 194.708C123.75 193.591 105.266 183.78 92.152 167.435C79.0383 151.089 72.3691 129.548 73.6114 107.55L148.222 111.764L222.832 115.977Z" fill="#D9D9D9"/>
<path id="Vector 1" d="M76.3237 59.5246L78.2958 24.6055L159.256 29.1778C157.215 65.3215 105.254 61.1585 76.3237 59.5246Z" fill="black"/>
<path id="Vector 2" d="M225.231 73.5073L227.517 33.033L152.112 28.7744C149.746 70.6683 198.286 71.9856 225.231 73.5073Z" fill="black"/>
<rect id="Rectangle 3" width="33.7136" height="9.77822" rx="4.88911" transform="matrix(0.936813 -0.34983 0.320228 0.947341 98.0403 83.6793)" fill="black"/>
<ellipse id="Ellipse 2" cx="122.08" cy="102.325" rx="7.55242" ry="8.34742" transform="rotate(3.2324 122.08 102.325)" fill="black"/>
<rect id="Rectangle 4" width="33.7136" height="9.77822" rx="4.88911" transform="matrix(-0.891468 -0.453084 -0.424855 0.905261 201.451 89.5195)" fill="black"/>
<ellipse id="Ellipse 3" cx="7.94992" cy="8.34742" rx="7.94992" ry="8.34742" transform="matrix(-0.998409 -0.0563861 -0.0563861 0.998409 184.065 97.4647)" fill="black"/>
<path id="Vector 3 (Stroke)" fill-rule="evenodd" clip-rule="evenodd" d="M142.889 112.297C144.59 104.134 146.326 95.0097 146.835 88.668C146.892 87.9705 147.489 87.4365 148.188 87.4759C148.886 87.5154 149.422 88.1137 149.366 88.8112C148.844 95.3891 147.06 104.724 145.362 112.874C144.749 115.814 144.143 118.622 143.608 121.103C143.35 122.297 143.108 123.416 142.89 124.438C142.554 126.016 142.273 127.36 142.071 128.406C141.863 129.489 141.759 130.155 141.743 130.436C141.696 131.264 142.299 132.342 144.366 133.351C146.057 134.176 148.405 134.772 151.113 135.04C151.864 135.115 152.441 135.757 152.398 136.51C152.356 137.263 151.71 137.842 150.959 137.77C148.023 137.487 145.345 136.837 143.303 135.84C141.047 134.738 139.064 132.934 139.213 130.293C139.242 129.778 139.39 128.912 139.59 127.872C139.797 126.796 140.083 125.427 140.42 123.847C140.641 122.813 140.884 121.688 141.143 120.49C141.677 118.014 142.279 115.228 142.889 112.297Z" fill="black"/>
<path id="Vector 4 (Stroke)" fill-rule="evenodd" clip-rule="evenodd" d="M157.153 160.819C151.644 162.762 145.909 162.031 141.88 160.633C141.173 160.388 140.835 159.592 141.105 158.896C141.38 158.188 142.179 157.853 142.902 158.096C146.513 159.312 151.564 159.903 156.325 158.224C161.363 156.447 166.284 152.059 168.841 142.601C169.03 141.901 169.735 141.47 170.439 141.648C171.141 141.826 171.576 142.544 171.389 143.243C168.63 153.531 163.13 158.711 157.153 160.819Z" fill="black"/>
<ellipse id="Ellipse 4" cx="74.9048" cy="91.6979" rx="6.75743" ry="16.2973" transform="rotate(3.2324 74.9048 91.6979)" fill="#D9D9D9"/>
<ellipse id="Ellipse 5" cx="223.729" cy="100.103" rx="7.15493" ry="16.2973" transform="rotate(3.2324 223.729 100.103)" fill="#D9D9D9"/>
<path id="Vector 5 (Stroke)" fill-rule="evenodd" clip-rule="evenodd" d="M73.9561 78.0327C74.2431 78.2055 74.3468 78.5721 74.201 78.8737C70.5058 86.5165 70.7583 92.8682 71.4147 95.5587C71.4941 95.8845 71.3366 96.228 71.0268 96.3563C70.6843 96.4981 70.2937 96.3218 70.2048 95.9618C69.4498 92.9031 69.2548 86.2042 73.0585 78.2976C73.2201 77.9618 73.6368 77.8404 73.9561 78.0327Z" fill="black"/>
<path id="Vector 6 (Stroke)" fill-rule="evenodd" clip-rule="evenodd" d="M226.017 86.5778C225.614 86.7284 225.425 87.1892 225.592 87.585C228.896 95.3807 227.932 101.492 226.851 104.162C226.69 104.56 226.845 105.033 227.234 105.215C227.59 105.382 228.015 105.246 228.172 104.886C229.453 101.941 230.517 95.3051 226.949 86.9726C226.795 86.6131 226.383 86.4408 226.017 86.5778Z" fill="black"/>
<path id="Vector 9 (Stroke)" fill-rule="evenodd" clip-rule="evenodd" d="M151.05 47.1478C151.388 46.3122 151.593 45.5771 151.698 44.9523C151.851 44.0382 152.436 43.1278 153.336 42.9069C154.289 42.6731 155.253 43.2866 155.217 44.2669C155.166 45.6535 154.792 47.1388 154.198 48.6066C153.321 50.7712 151.894 53.0882 149.955 55.3413C146.372 59.5068 140.967 63.5442 133.794 66.0569C132.804 66.4037 131.748 65.8027 131.493 64.7855C131.253 63.8327 131.808 62.864 132.735 62.5397C139.371 60.2196 144.272 56.5206 147.445 52.8319C149.165 50.8327 150.356 48.8627 151.05 47.1478Z" fill="black"/>
<path id="Vector 7" d="M144.286 195.547C163.007 196.604 196.905 184.11 211.793 156.361" stroke="black" stroke-width="3"/>
</g>
</g>
</svg>
